# xmcd
# 
# Track frame offsets:
#     150
#     17941
#     38536
#     57617
#     74681
#     87738
#     110030
#     152304
# 
# Disc length: 2633
# 
# Revision: 1
# Processed by: cddbd v1.5.2PL0 Copyright (c) Steve Scherf et al.
# Submitted via: fre:ac v1.1beta1pre5
# 
DISCID=6d0a4708
DTITLE=The Whiskey Foundation - Blues and Bliss
DYEAR=2017
DGENRE=Blues
TTITLE0=Complaints
TTITLE1=Funk the Boogie
TTITLE2=Juice 'n' Jam
TTITLE3=Try To Handle
TTITLE4=Chimes at Midnight
TTITLE5=Unspoken Dreams
TTITLE6=Free My Mind
TTITLE7=Soul Man
EXTD=
EXTT0=
EXTT1=
EXTT2=
EXTT3=
EXTT4=
EXTT5=
EXTT6=
EXTT7=
PLAYORDER=
